<svg id="Vrstva_1" data-name="Vrstva 1" xmlns="http://www.w3.org/2000/svg" viewBox="0 0 324.5 146.54"><defs><style>.cls-1{fill:#0c2e40;}.cls-2{fill:#3779a6;}</style></defs><rect class="cls-1" x="166.09" y="60.65" width="30.72" height="6.54"/><polygon class="cls-1" points="154.11 0 154.11 6.54 154.11 60.65 154.11 67.19 160.65 67.19 160.65 60.65 160.65 6.54 160.65 0 154.11 0"/><polygon class="cls-1" points="266.49 0 265.62 1.85 263.41 6.54 237.98 60.65 234.91 67.19 242.14 67.19 245.21 60.65 269.2 9.61 292.81 60.65 295.83 67.19 303.04 67.19 300.01 60.65 274.99 6.54 272.83 1.88 271.97 0 266.49 0"/><polygon class="cls-1" points="191.18 0 191.19 6.54 213.16 6.54 213.16 60.65 213.16 67.19 219.7 67.19 219.7 60.65 219.7 6.54 241.67 6.54 241.67 0 191.18 0"/><path class="cls-1" d="M181.33,439.63h7.81a33.6,33.6,0,1,0,0-67.19h-14V379h14a27.05,27.05,0,1,1,0,54.1H169.87V372.44h-6.54v67.18h18Z" transform="translate(-141.87 -372.44)"/><rect class="cls-2" x="105.5" y="29.52" width="27.98" height="6.54"/><polygon class="cls-2" points="93.19 0 93.19 6.54 93.19 60.65 93.19 67.19 99.73 67.19 139 67.19 139 60.65 99.73 60.65 99.73 6.54 139 6.54 139 0 93.19 0"/><path class="cls-2" d="M141.87,479.6l1.83-.4c.56,2.33,1.47,3.63,3.32,3.63a2.38,2.38,0,0,0,2.59-2.64c0-3.83-7.08-5.68-7.08-10.68a4,4,0,0,1,4.26-4.23c2.61,0,3.86,1.8,4.57,4.51l-1.8.48c-.56-2.1-1.32-3.19-2.82-3.19a2.07,2.07,0,0,0-2.26,2.3c0,4.16,7.08,5.71,7.08,10.73A4.31,4.31,0,0,1,147,484.6c-3,0-4.37-1.88-5.13-5" transform="translate(-141.87 -372.44)"/><path class="cls-2" d="M154.68,481.51v-9h-1.6v-1.62h1.6v-4.77h1.9v4.77H159v1.62h-2.41V481c0,1.32.33,1.83,1.45,1.83a2.35,2.35,0,0,0,1-.18v1.6a5.57,5.57,0,0,1-1.34.15c-2,0-3-.68-3-2.91" transform="translate(-141.87 -372.44)"/><path class="cls-2" d="M161.33,470.93h1.88v2.13h0a3.8,3.8,0,0,1,3.37-2.33h.28l-.13,1.85h-.38a3.88,3.88,0,0,0-3.19,2.43v9.31h-1.88Zm-.61-5.33h1.22l1.72,2.16,1.73-2.16h1.19l-2.31,4H163Z" transform="translate(-141.87 -372.44)"/><path class="cls-2" d="M174.24,476.64c-.08-2.49-.69-4.24-2.16-4.24s-2.23,1.22-2.38,4.24Zm-6.42,1c0-4.75,1.73-6.9,4.29-6.9,2.89,0,4,3.09,4,6.87v.53h-6.4c0,3,.84,4.75,2.49,4.75,1.32,0,1.9-.89,2.33-2.44l1.55.46c-.63,2.43-2,3.63-4,3.63-2.61,0-4.26-2.24-4.26-6.9" transform="translate(-141.87 -372.44)"/><path class="cls-2" d="M184.54,481.23V474.1a3.35,3.35,0,0,0-2.39-1.62c-1.42,0-2.23,1.37-2.23,5.1s.84,5.22,2.26,5.22a3.45,3.45,0,0,0,2.36-1.57M178,477.6c0-5,1.55-6.87,3.73-6.87a3.31,3.31,0,0,1,2.82,1.75v-6.93h1.9V481a12.55,12.55,0,0,0,.28,3.3h-2a12.32,12.32,0,0,1-.2-1.6,3.62,3.62,0,0,1-2.89,1.75c-2.18,0-3.66-1.87-3.66-6.87" transform="translate(-141.87 -372.44)"/><path class="cls-2" d="M189.36,470.93h1.88v1.67a5,5,0,0,1,3.5-1.87c1.72,0,2.58.94,2.58,3.4v10.19h-1.9v-9.76c0-1.37-.33-2.06-1.34-2.06a4.93,4.93,0,0,0-2.84,1.63v10.19h-1.88Z" transform="translate(-141.87 -372.44)"/><path class="cls-2" d="M202.27,465.63h2.11l-2.49,3.91h-1.32Zm-2,5.3h1.9v13.39h-1.9Z" transform="translate(-141.87 -372.44)"/><path class="cls-2" d="M212.32,465.6h1.21l1.73,2.16L217,465.6h1.2l-2.31,4H214.6ZM211,481.38l1.6-.69c.53,1.42,1.34,2.29,2.59,2.29s2-.74,2-1.78c0-2.84-5.61-3-5.61-7.23a3.37,3.37,0,0,1,3.55-3.29c2,0,3.12,1.14,3.81,3l-1.6.63c-.38-1.21-1.12-2-2.18-2a1.59,1.59,0,0,0-1.73,1.6c0,2.89,5.61,3.1,5.61,7.23,0,2-1.47,3.42-3.86,3.42-2.1,0-3.42-1.24-4.21-3.19" transform="translate(-141.87 -372.44)"/><path class="cls-2" d="M221.42,465.55h1.86V478c.35-.87,1-2,1.44-2.89l2.26-4.19h1.85l-2.82,5,3.25,8.39h-1.9l-2.54-6.54-1.54,2.71v3.83h-1.86Z" transform="translate(-141.87 -372.44)"/><path class="cls-2" d="M237.05,477.63c0-3.05-.58-5.23-2.38-5.23s-2.47,2-2.47,5.23c0,3.07.61,5.27,2.47,5.27,1.69,0,2.38-1.95,2.38-5.27m-6.75,0c0-4.62,1.65-6.9,4.37-6.9S239,473,239,477.63s-1.65,6.9-4.31,6.9-4.37-2.31-4.37-6.9" transform="translate(-141.87 -372.44)"/><rect class="cls-2" x="99.64" y="93.11" width="1.9" height="18.77"/><path class="cls-2" d="M251.86,481.25V477c-3.07.81-4.13,2.44-4.13,4,0,1.34.61,1.85,1.5,1.85a3.72,3.72,0,0,0,2.63-1.55m-6-.12c0-2.49,2-4.65,6-5.71v-1c0-1.3-.45-2.06-1.52-2.06a4.55,4.55,0,0,0-3,1.75L246.18,473a5.92,5.92,0,0,1,4.39-2.23c2.31,0,3.14,1.29,3.14,3.73V481a12.55,12.55,0,0,0,.28,3.3h-1.9a5.32,5.32,0,0,1-.23-1.62,4,4,0,0,1-3.34,1.75c-1.68,0-2.62-1.22-2.62-3.32" transform="translate(-141.87 -372.44)"/><path class="cls-2" d="M263.48,470.93h1.91v13.39h-1.91Zm0-4.74h2v2.28h-2Z" transform="translate(-141.87 -372.44)"/><path class="cls-2" d="M268.45,470.93h1.88v1.67a5,5,0,0,1,3.5-1.87c1.73,0,2.59.94,2.59,3.4v10.19h-1.9v-9.76c0-1.37-.33-2.06-1.35-2.06a5,5,0,0,0-2.84,1.63v10.19h-1.88Z" transform="translate(-141.87 -372.44)"/><path class="cls-2" d="M280,472.55h-1.63v-1.62H280V468.7c0-2.18,1.11-3.17,3.22-3.17a4.78,4.78,0,0,1,.78.05v1.65a3.34,3.34,0,0,0-.61,0c-.91,0-1.49.41-1.49,1.55v2.18h2v1.62h-2v11.77H280Z" transform="translate(-141.87 -372.44)"/><path class="cls-2" d="M291.77,477.63c0-3.05-.59-5.23-2.39-5.23s-2.46,2-2.46,5.23c0,3.07.61,5.27,2.46,5.27,1.7,0,2.39-1.95,2.39-5.27m-6.75,0c0-4.62,1.65-6.9,4.36-6.9s4.31,2.28,4.31,6.9-1.64,6.9-4.31,6.9-4.36-2.31-4.36-6.9" transform="translate(-141.87 -372.44)"/><path class="cls-2" d="M296.1,470.93H298v2.13h0a3.83,3.83,0,0,1,3.38-2.33h.28l-.13,1.85h-.38A3.89,3.89,0,0,0,298,475v9.31H296.1Z" transform="translate(-141.87 -372.44)"/><path class="cls-2" d="M303.67,470.93h1.87v1.67a4.73,4.73,0,0,1,3.35-1.87,2.23,2.23,0,0,1,2.44,1.93,4.83,4.83,0,0,1,3.44-1.93c1.75,0,2.57,1,2.57,3.42v10.17h-1.91v-9.76c0-1.37-.28-2.06-1.34-2.06a4.08,4.08,0,0,0-2.66,1.63v10.19h-1.88v-9.76c0-1.37-.28-2.11-1.32-2.11s-1.8.76-2.69,1.68v10.19h-1.87Z" transform="translate(-141.87 -372.44)"/><path class="cls-2" d="M325.55,481.25V477c-3.06.81-4.13,2.44-4.13,4,0,1.34.61,1.85,1.5,1.85a3.7,3.7,0,0,0,2.63-1.55m-5.95-.12c0-2.49,1.95-4.65,5.95-5.71v-1c0-1.3-.45-2.06-1.52-2.06a4.57,4.57,0,0,0-3,1.75L319.87,473a5.93,5.93,0,0,1,4.39-2.23c2.31,0,3.15,1.29,3.15,3.73V481a12.13,12.13,0,0,0,.28,3.3h-1.91a5.65,5.65,0,0,1-.23-1.62,4,4,0,0,1-3.34,1.75c-1.67,0-2.61-1.22-2.61-3.32" transform="translate(-141.87 -372.44)"/><path class="cls-2" d="M330.94,481.51v-9h-1.6v-1.62h1.6v-4.77h1.9v4.77h2.41v1.62h-2.41V481c0,1.32.33,1.83,1.44,1.83a2.4,2.4,0,0,0,1-.18v1.6a5.66,5.66,0,0,1-1.35.15c-2,0-3-.68-3-2.91" transform="translate(-141.87 -372.44)"/><path class="cls-2" d="M337.71,470.93h1.9v13.39h-1.9Zm0-4.74h1.95v2.28h-1.95Z" transform="translate(-141.87 -372.44)"/><path class="cls-2" d="M342.68,465.55h1.85V478c.36-.87,1-2,1.45-2.89l2.26-4.19h1.85l-2.82,5,3.25,8.39h-1.91l-2.53-6.54-1.55,2.71v3.83h-1.85Z" transform="translate(-141.87 -372.44)"/><path class="cls-2" d="M351.05,489.11l.41-1.54a3.74,3.74,0,0,0,1.24.17c1,0,1.39-.7,1.8-2.25l.38-1.37-3.45-13.19h1.91l1.79,7.43c.26,1.14.44,1.93.69,3.43h.05c.25-1.48.43-2.29.71-3.4l1.8-7.46h1.8l-3.93,14.84c-.66,2.56-1.42,3.65-3.45,3.65a4.57,4.57,0,0,1-1.75-.31" transform="translate(-141.87 -372.44)"/><path class="cls-2" d="M374.06,481.25V477c-3.07.81-4.14,2.44-4.14,4,0,1.34.61,1.85,1.5,1.85a3.74,3.74,0,0,0,2.64-1.55m-6-.12c0-2.49,1.95-4.65,6-5.71v-1c0-1.3-.46-2.06-1.52-2.06a4.6,4.6,0,0,0-3,1.75L368.38,473a5.91,5.91,0,0,1,4.38-2.23c2.31,0,3.15,1.29,3.15,3.73V481a12.13,12.13,0,0,0,.28,3.3h-1.9a5.32,5.32,0,0,1-.23-1.62,4,4,0,0,1-3.35,1.75c-1.67,0-2.61-1.22-2.61-3.32" transform="translate(-141.87 -372.44)"/><path class="cls-2" d="M391.44,476.64c-.08-2.49-.69-4.24-2.16-4.24s-2.23,1.22-2.38,4.24Zm-6.42,1c0-4.75,1.72-6.9,4.28-6.9,2.9,0,4,3.09,4,6.87v.53h-6.39c0,3,.84,4.75,2.49,4.75,1.31,0,1.9-.89,2.33-2.44l1.55.46c-.64,2.43-2,3.63-4,3.63-2.61,0-4.26-2.24-4.26-6.9" transform="translate(-141.87 -372.44)"/><path class="cls-2" d="M395.7,465.55h1.85V478c.35-.87,1-2,1.45-2.89l2.25-4.19h1.86l-2.82,5,3.24,8.39h-1.9l-2.53-6.54-1.55,2.71v3.83H395.7Z" transform="translate(-141.87 -372.44)"/><path class="cls-2" d="M411.32,477.63c0-3.05-.58-5.23-2.38-5.23s-2.46,2-2.46,5.23c0,3.07.61,5.27,2.46,5.27,1.7,0,2.38-1.95,2.38-5.27m-6.74,0c0-4.62,1.65-6.9,4.36-6.9s4.31,2.28,4.31,6.9-1.65,6.9-4.31,6.9-4.36-2.31-4.36-6.9" transform="translate(-141.87 -372.44)"/><path class="cls-2" d="M415.66,470.93h1.88v1.67a5,5,0,0,1,3.5-1.87c1.72,0,2.59.94,2.59,3.4v10.19h-1.91v-9.76c0-1.37-.33-2.06-1.34-2.06a4.93,4.93,0,0,0-2.84,1.63v10.19h-1.88Z" transform="translate(-141.87 -372.44)"/><path class="cls-2" d="M432.71,477.63c0-3.05-.59-5.23-2.39-5.23s-2.46,2-2.46,5.23c0,3.07.61,5.27,2.46,5.27s2.39-1.95,2.39-5.27m-6.75,0c0-4.62,1.65-6.9,4.36-6.9s4.31,2.28,4.31,6.9-1.65,6.9-4.31,6.9-4.36-2.31-4.36-6.9" transform="translate(-141.87 -372.44)"/><path class="cls-2" d="M437.05,470.93h1.87v1.67a4.73,4.73,0,0,1,3.35-1.87,2.23,2.23,0,0,1,2.44,1.93,4.83,4.83,0,0,1,3.45-1.93c1.75,0,2.56,1,2.56,3.42v10.17h-1.91v-9.76c0-1.37-.28-2.06-1.34-2.06a4.1,4.1,0,0,0-2.66,1.63v10.19h-1.88v-9.76c0-1.37-.28-2.11-1.32-2.11s-1.8.76-2.69,1.68v10.19h-1.87Z" transform="translate(-141.87 -372.44)"/><path class="cls-2" d="M453.69,470.93h1.9v13.39h-1.9Zm0-4.74h2v2.28h-2Z" transform="translate(-141.87 -372.44)"/><path class="cls-2" d="M464.54,476.64c-.07-2.49-.68-4.24-2.15-4.24s-2.23,1.22-2.39,4.24Zm-6.41,1c0-4.75,1.72-6.9,4.28-6.9,2.9,0,4,3.09,4,6.87v.53H460c0,3,.84,4.75,2.49,4.75,1.31,0,1.9-.89,2.33-2.44l1.54.46c-.63,2.43-2,3.63-3.95,3.63-2.61,0-4.26-2.24-4.26-6.9" transform="translate(-141.87 -372.44)"/><path class="cls-1" d="M204.59,511.23c1.87,0,2.66-.89,2.66-3.06s-.77-3-2.68-3h-1.42v6Zm-3-7.43h3c2.58,0,4.29,1.1,4.29,4.3,0,3.56-1.87,4.49-4.39,4.49h-1.3v6.23h-1.56Z" transform="translate(-141.87 -372.44)"/><path class="cls-1" d="M230,510.07c-.3-1.48-.57-2.6-.81-4.3h-.06c-.24,1.75-.51,2.8-.81,4.28l-.67,3.09h3Zm-3.61,8.75H225l3.49-15.08H230l3.49,15.08h-1.56l-1-4.4h-3.59Z" transform="translate(-141.87 -372.44)"/><path class="cls-1" d="M254.34,511.17c2,0,2.71-.85,2.71-3.05s-.71-2.92-2.82-2.92H253v6Zm4.44,7.65h-1.6l-2.36-6.35a4.1,4.1,0,0,1-.51,0H253v6.33h-1.56v-15h2.84c2.93,0,4.39,1.3,4.39,4.28a4.05,4.05,0,0,1-2.3,4Z" transform="translate(-141.87 -372.44)"/><path class="cls-1" d="M279.92,517.44c2.44,0,3.33-1.91,3.33-6.15s-.89-6.07-3.35-6.07h-1.25v12.22Zm-2.86-13.64h2.64c3.49,0,5.16,2,5.16,7.49s-1.73,7.53-5.16,7.53h-2.64Z" transform="translate(-141.87 -372.44)"/><path class="cls-1" d="M302.92,514.07V503.8h1.56v10c0,2.31.45,3.77,2.25,3.77s2.22-1.4,2.22-3.73V503.8h1.5V514c0,3-.87,5-3.74,5s-3.79-2-3.79-4.91" transform="translate(-141.87 -372.44)"/><path class="cls-1" d="M332.47,517.48c1.93,0,2.59-.93,2.59-2.84s-.95-2.88-2.88-2.88h-1.5v5.72Zm-.35-7c1.79,0,2.6-.79,2.6-2.66s-.61-2.6-2.58-2.6h-1.46v5.26Zm-3-6.66h3.06c2.76,0,4.1,1.12,4.1,3.78,0,2.29-1,3.1-2.15,3.47v0c1.36.3,2.52,1.24,2.52,3.65,0,2.78-1.4,4.08-4.18,4.08h-3.35Z" transform="translate(-141.87 -372.44)"/><rect class="cls-1" x="213.08" y="131.36" width="1.58" height="15.02"/><path class="cls-1" d="M374.9,511.31c0-5.38,1.62-7.69,4.28-7.69,2.48,0,3.47,2,3.78,4.87l-1.52.18c-.29-2.31-.92-3.59-2.26-3.59-1.86,0-2.7,2.21-2.7,6.21s.86,6.27,2.72,6.27c1.4,0,2.09-1.15,2.42-3.73l1.52.16c-.41,2.94-1.46,5-3.94,5-2.78,0-4.3-2.23-4.3-7.67" transform="translate(-141.87 -372.44)"/><polygon class="cls-1" points="259.29 131.36 265.42 131.36 265.42 132.78 260.87 132.78 260.87 137.73 264.14 137.73 264.14 139.11 260.87 139.11 260.87 144.98 265.68 144.98 265.68 146.38 259.29 146.38 259.29 131.36"/></svg>