<svg id="Vrstva_1" data-name="Vrstva 1" xmlns="http://www.w3.org/2000/svg" xmlns:xlink="http://www.w3.org/1999/xlink" viewBox="0 0 1566.55 298.88"><defs><style>.cls-1{fill:none;}.cls-2{clip-path:url(#clip-path);}.cls-3{fill:#95c11f;}.cls-4{fill:#153d8a;}</style><clipPath id="clip-path" transform="translate(-67.12 -275.76)"><rect class="cls-1" x="-37.64" y="170.9" width="1776.07" height="508.6"/></clipPath></defs><g class="cls-2"><path class="cls-3" d="M331.16,329.37a149.5,149.5,0,1,0,3.08,187.72,104.69,104.69,0,0,1-3.08-187.72M484,422.48a104.71,104.71,0,0,0-152.84-93.11,149.09,149.09,0,0,1,3.08,187.72A104.65,104.65,0,0,0,484,422.48" transform="translate(-67.12 -275.76)"/><path class="cls-4" d="M739.88,367.84,753,319.13,751.26,317l-64,1.07h-54l-37,.34-2.14,2.14c-13.51,66.13-16.71,80-29.51,135.11l-16.35,68.28L537.56,568l1.43,2.13,73.6-1.41,2.13-2.15,11-51.91L635,471.31l73.25-.71,2.48-1.78c5.34-19.55,7.11-26,14.23-48.35l-1.42-2.5-76.45,2.14,11-49.77H737ZM899.8,405.61c0,9.6-1.42,19.56-3.21,29.16-5.33,30.57-17.77,85.68-55.1,85.68-2.5,0-23.48,0-30.59-22.75-2.49-7.12-2.49-16-2.49-18.86,0-23.82,10.32-68.25,22.76-89.23,12.09-20.27,28.08-24.54,36.26-24.54,30.24,0,32.37,28.81,32.37,40.54m71.09,60.44c4.64-17.41,7.48-35.2,7.48-52.62,0-22-4.27-50.85-26.29-74-19.58-20.26-52.28-26.66-78.24-26.66-35.21,0-64,8.17-85.69,25.25-50.49,38.75-57.24,112.7-56.89,135.83,0,32.7,7.1,69.32,46.93,88.87,9.6,4.63,19.21,7.12,29.16,8.89a145.66,145.66,0,0,0,30.57,2.86c54.4,0,80.73-22.41,91-32,23.12-21.34,34.84-51.2,41.93-76.45m325.72-67.2,13.49-79.64-1.76-2.14c-44.81,1.07-55.1,1.07-96.71,1.07l-2.5,2.13c-2.49,5-19.92,42.67-25.58,54.4l-44.82,96-3.56-69.33-1.41-26L1132,319.21l-2.12-2.14c-42.67,1.07-53,1.07-97.42,1.07l-2.14,2.13-20.63,78.94-24.54,90.66L963.44,568.1l1.79,2.14c24.53-1.07,32-1.42,58.66-1.42l2.48-1.79,23.12-96,14.57-58.31,9.61-38.05,6.75,146.14,2.13,46.93,2.5,2.14,56.17-1.06,2.85-1.79,29.87-64.35,61.86-128L1218,461.08l-8.18,43.37L1197.4,568.1l1.78,2.14,68.27-1.42,2.85-1.79L1281,494.85Zm207.28-30.94,13.87-48.7-2.13-2.14-63.29,1.07h-93.88l-2.48,2.48c-10,50.5-12.45,62.59-24.9,118.05L1316.87,497l-17.41,71.11,1.42,2.14,65.77-1.07h98.49l2.48-2.49,15.65-52.27-2.14-2.13-54,1.78h-38.75l7.47-31.3,4.26-17.42h74.32l2.48-2.12L1490.38,417l-1.42-2.84-78.22,1.43,10.67-45.16h80Zm129.78-48.7-1.07-2.14c-36.26,1.07-43.74,1.07-77.51,1.07l-1.78,2.13c-12.09,58.32-15.29,73.25-26.66,121.24L1508.15,519l-11.72,49.07,1.41,2.14,76.81-1.42,2.49-1.79,9.61-49.07,12.43-56.88c15.29-67.92,19.2-83.91,34.49-141.87" transform="translate(-67.12 -275.76)"/></g></svg>