<svg id="Vrstva_1" data-name="Vrstva 1" xmlns="http://www.w3.org/2000/svg" viewBox="0 0 598 393.71"><defs><style>.cls-1{fill:#fff;}</style></defs><path id="Subtraction_1" data-name="Subtraction 1" class="cls-1" d="M215,393.58h0l-31.54-52.7L58.28,245,73,239.23a8.63,8.63,0,0,0,5.49-7.82v-.51a8.46,8.46,0,0,0-.61-2.85l-13.25-33a8.47,8.47,0,0,0-3.26-4,8.75,8.75,0,0,0-4.84-1.45h-.66a8.71,8.71,0,0,0-2,.4h0l-.1,0-.11,0H53.5l-.07,0-.11,0L29,199.74a8.6,8.6,0,0,0-5.48,7.82,8.33,8.33,0,0,0,.61,3.35l4.59,11.45-4.65-3.56L0,191.83,476.13-.13l3,6.84.19-.07,2.1,5.27L483,15.46l-18.26,7.17a8.59,8.59,0,0,0-4.88,11.17l13.25,33a8.53,8.53,0,0,0,3.26,4,8.81,8.81,0,0,0,8,.85l19.9-7.81L598,276.32l-35.89,35.49L430.43,181.66,470.7,76.24l-59.83,91.45ZM111,167.49a8.63,8.63,0,0,0-3.18.6L83.5,177.61a8.61,8.61,0,0,0-4.88,11.18l13.25,33a8.55,8.55,0,0,0,3.26,4,8.83,8.83,0,0,0,4.86,1.46,8.64,8.64,0,0,0,3.18-.61l24.27-9.52a8.59,8.59,0,0,0,4.88-11.17l-13.24-33a8.52,8.52,0,0,0-3.27-4A8.79,8.79,0,0,0,111,167.49Zm54.47-22.15a8.7,8.7,0,0,0-3.19.61L138,155.47a8.6,8.6,0,0,0-4.88,11.17l13.25,33a8.55,8.55,0,0,0,3.26,4,8.71,8.71,0,0,0,4.85,1.45,8.52,8.52,0,0,0,3.19-.6l24.27-9.52a8.59,8.59,0,0,0,4.88-11.17h0l-13.25-33a8.55,8.55,0,0,0-3.26-4,8.82,8.82,0,0,0-4.85-1.46Zm54.46-22.14a8.74,8.74,0,0,0-3.19.61l-24.27,9.52a8.59,8.59,0,0,0-4.88,11.17h0l13.25,33a8.53,8.53,0,0,0,3.26,4,8.81,8.81,0,0,0,8,.85l24.27-9.53a8.6,8.6,0,0,0,4.88-11.17l-13.25-33a8.55,8.55,0,0,0-3.26-4,8.8,8.8,0,0,0-4.85-1.46Zm54.46-22.14a8.64,8.64,0,0,0-3.18.61l-24.27,9.52A8.59,8.59,0,0,0,242,122.36h0l13.24,33a8.49,8.49,0,0,0,3.27,4,8.76,8.76,0,0,0,4.85,1.45,8.63,8.63,0,0,0,3.18-.6l24.27-9.52a8.59,8.59,0,0,0,4.88-11.18l-13.24-33a8.49,8.49,0,0,0-3.27-4,8.84,8.84,0,0,0-4.85-1.45Zm54.47-22.14a8.69,8.69,0,0,0-3.19.6l-24.27,9.53a8.59,8.59,0,0,0-4.88,11.17l13.25,33a8.53,8.53,0,0,0,3.26,4,8.81,8.81,0,0,0,8,.85l24.27-9.52a8.62,8.62,0,0,0,4.88-11.18l-13.25-33a8.53,8.53,0,0,0-3.26-4,8.89,8.89,0,0,0-4.85-1.45Zm54.47-22.14a8.69,8.69,0,0,0-3.19.6l-24.27,9.53A8.59,8.59,0,0,0,351,78.08h0l13.24,33a8.61,8.61,0,0,0,3.27,4,8.87,8.87,0,0,0,4.85,1.45,8.63,8.63,0,0,0,3.18-.6l24.28-9.53a8.6,8.6,0,0,0,4.88-11.17h0l-13.25-33a8.61,8.61,0,0,0-3.27-4,8.79,8.79,0,0,0-4.85-1.45Zm54.46-22.14a8.73,8.73,0,0,0-3.19.6l-24.27,9.52a8.6,8.6,0,0,0-4.88,11.18l13.24,33a8.59,8.59,0,0,0,3.27,4,8.84,8.84,0,0,0,4.85,1.45,8.74,8.74,0,0,0,3.19-.61l24.27-9.52a8.6,8.6,0,0,0,4.88-11.17l-13.25-33a8.55,8.55,0,0,0-3.26-4,8.81,8.81,0,0,0-4.85-1.45ZM63.63,193.26a8.83,8.83,0,0,0-6.11-3.57,8.81,8.81,0,0,1,6.11,3.57Z" transform="translate(0 0.13)"/></svg>