<svg id="Vrstva_1" data-name="Vrstva 1" xmlns="http://www.w3.org/2000/svg" viewBox="0 0 583.61 179.87"><defs><style>.cls-1{fill:#2b2a29;}.cls-2{fill:#e31e24;}.cls-3{fill:#fefefe;}.cls-4{fill:none;stroke:#2b2a29;stroke-miterlimit:22.93;stroke-width:2.83px;}</style></defs><path class="cls-1" d="M543.44,475q12.24-16,12.23-30.16c0-6.88-1.7-12.61-5.1-17.23s-7.5-6.87-12.27-6.87A14.06,14.06,0,0,0,527,426c-2.92,3.47-4.4,7.91-4.4,13.34q0,18.14,20.82,35.71m-17.75,17.41q-11.54-12.52-15.86-22.51a52.94,52.94,0,0,1-4.28-21c0-11.06,3-20.26,8.94-27.69s13.86-11.09,23.66-11.09q14.25,0,23.44,10.09a33.29,33.29,0,0,1,9.16,23.07q0,18.18-21.18,37.92,22.42,18.26,26.49,40.45h-23.3q-6.51-11.44-20.38-23.33a72.62,72.62,0,0,0-12,23.33H503.87Q509.2,506.72,525.69,492.45Z" transform="translate(-2.57 -344.24)"/><path class="cls-2" d="M465.58,521.16,446.71,468q22.29-.53,37-8.08l21.37,61.2Zm-33.29-68.41V416.22h12.13c7.21,0,12.44-.65,15.64-2,6-2.5,9-7.12,9-13.86,0-5.61-2.16-9.72-6.48-12.39-3.32-2.08-8.76-3.11-16.41-3.11h-13.9v-36.8H444q16.14,0,25.66,2.72a47.61,47.61,0,0,1,17.7,9.55A50.44,50.44,0,0,1,501,378.22a52.39,52.39,0,0,1-.25,44.69,52.75,52.75,0,0,1-14.13,18.35,46.86,46.86,0,0,1-16.71,8.9q-9,2.59-23.45,2.59Z" transform="translate(-2.57 -344.24)"/><rect class="cls-3" x="430.19" y="179.25" width="153.42" height="0.62"/><rect class="cls-4" x="429.72" y="3.84" width="151.67" height="172.98"/><path d="M93.8,344.24c1.21,2.89,2.2,5.28,3.21,7.67q2,4.86,4.09,9.71l5.72,13.44c2.26,5.27,4.51,10.55,6.8,15.81,2.56,5.9,5.21,11.77,7.74,17.69,2.13,5,4.15,10,6.21,15,.77,1.88-.4,3.36-1.12,4.89-1.15,2.43-2.4,4.82-3.64,7.21-.49.94-1.12,1.82-1.6,2.77q-4.74,9.43-9.45,18.9c-3.39,6.83-6.7,13.7-10.13,20.52-3,6-6.12,11.84-9.15,17.78-2,3.93-3.91,7.89-5.84,11.85-1.78,3.68-3.52,7.39-5.3,11.07a2,2,0,0,1-2,1.36c-6.48-.07-13,0-19.42,0-6.77-.07-13.54-.26-20.31-.39-4.44-.08-8.87-.13-13.3-.22-6.22-.13-12.44-.29-18.66-.41-1.13,0-2.26.1-3.39.11-2.05,0-2,0-1.09-1.78,1.7-3.17,3.35-6.37,5.07-9.53,3.14-5.78,6.4-11.5,9.47-17.33,4-7.64,7.87-15.37,11.84-23,1.83-3.53,3.79-7,5.65-10.48q5.19-9.84,10.34-19.71c2.66-5.09,5.27-10.19,7.93-15.28,2.88-5.53,5.75-11.06,8.69-16.56,3.66-6.84,7.45-13.61,11.06-20.48,3.11-5.9,6-11.89,9.05-17.84,2.37-4.65,4.77-9.29,7.14-13.94C90.84,350.2,92.21,347.42,93.8,344.24ZM87,396c-1.45-.6-2.82-1.09-4.12-1.71-1.65-.79-3.26-1.66-4.85-2.56-.79-.44-1.23-.41-1.67.47-.85,1.68-1.86,3.27-2.73,4.93-.48.92-.83,1.9-1.23,2.83l1.27.67,7.65,3.77c.72.36,1.13.25,1.53-.55C84.11,401.35,85.49,398.86,87,396ZM60,447.77s.25-.15.33-.31C61.59,445,62.86,442.52,64,440a1.48,1.48,0,0,0-.57-1.29c-2.6-1.46-5.23-2.87-7.9-4.19a1.59,1.59,0,0,0-1.49.36c-1.16,2.13-2.17,4.35-3.27,6.52-.47.93-.27,1.38.71,1.86C54.31,444.65,57,446.19,60,447.77ZM48.68,469.13c1.18-2.14,2.35-4.2,3.46-6.3,1-1.94,1-2-.87-3.12-2.52-1.46-5.1-2.81-7.74-4.25-1.43,2.69-2.81,5.22-4.12,7.77-.34.65-.21,1.18.59,1.57C42.86,466.17,45.69,467.62,48.68,469.13Zm44.65-85c1.27-2.59,2.58-5.2,3.8-7.85a1.21,1.21,0,0,0-.48-1.09c-2.67-1.4-5.37-2.76-8.11-4a1.41,1.41,0,0,0-1.29.44c-1.33,2.33-2.57,4.71-3.84,7.08Zm-22,41.72c1.31-2.41,2.61-4.74,3.8-7.12.14-.27-.23-1.05-.57-1.24-2.31-1.33-4.63-2.66-7-3.78-.84-.39-2.07-1.22-2.78.63S62.83,418,62,419.9a1.38,1.38,0,0,0,.31,1.31C65.2,422.79,68.18,424.27,71.33,425.88ZM41.78,482.31l-9.34-4.95-4.33,8.33,9.2,4.82ZM30.55,502.84,21.65,498c-1.5,2.9-2.84,5.44-4.11,8a1.16,1.16,0,0,0,.2,1.1,57.25,57.25,0,0,0,5.84,3.1c1,.42,2.24,1.45,3.16-.4C27.86,507.54,29.16,505.36,30.55,502.84Z" transform="translate(-2.57 -344.24)"/><path d="M207,521.16c0-2.81,0-5.73,0-8.64,0-1.89.21-3.78.24-5.66.05-2.75,0-5.5,0-8.25.08-4.09.23-8.17.32-12.25.12-4.82.19-9.63.31-14.45.09-3.9.23-7.79.32-11.69.11-4.6.18-9.2.28-13.8.09-4,.18-7.93.3-11.89a5.53,5.53,0,0,1,.37-2.24,2.28,2.28,0,0,1,1.5-1.21c7.62-.13,15.25-.21,22.87-.19,4.77,0,9.53.24,14.3.27s9.33-.15,14-.12c3.21,0,6.42.34,9.63.37,3,0,5.93-.21,8.89-.2,3.79,0,7.57.24,11.36.26,2.83,0,5.66-.25,8.5-.27,2.5,0,5,.13,7.52.2a7.41,7.41,0,0,0,1.05-.07c2.08-.27,2.09-.11,2.72,1.91.68,2.22,1.69,4.34,2.53,6.51q3.16,8.16,6.3,16.35c2.26,5.93,4.44,11.89,6.75,17.8,1.58,4.06,3.38,8,5,12.1,1.27,3.3,2.34,6.69,3.52,10,.28.78.66,1.52,1,2.28h.5c.51-1.17,1-2.33,1.52-3.5q2.63-6.29,5.22-12.59c1.79-4.36,3.54-8.74,5.37-13.09,1.26-3,2.62-6,4-9,1.76-3.92,3.58-7.82,5.28-11.77,2.22-5.17,4.34-10.39,6.55-15.56a1.38,1.38,0,0,1,1.05-.65c2.65,0,5.3.11,7.95.13,5.27,0,10.55,0,16.13,0-.59,1.36-1,2.5-1.55,3.6-1.6,3.4-3.23,6.79-4.85,10.18-1.9,4-3.83,8-5.7,12.05-2.44,5.26-4.8,10.56-7.26,15.82-2.26,4.83-4.64,9.6-6.91,14.43-2.38,5.09-4.67,10.23-7,15.32-1.79,3.83-3.67,7.61-5.45,11.44-.59,1.27-2.44,6.08-3.16,7.2a1.4,1.4,0,0,1-1.06.36c-5.43-.05-11.17.1-16.6,0-1.41,0-2.83.07-4.24,0a1.73,1.73,0,0,1-1.26-.79c-1.38-3-2.68-6-4-9q-2.52-5.79-5-11.59c-2.2-5.14-4.35-10.3-6.56-15.43-1.54-3.57-3.2-7.09-4.71-10.67-2-4.85-4-9.74-6-14.6-1.6-3.83-3.31-7.62-4.92-11.45a1.89,1.89,0,0,0-2.06-1.34q-6.72.09-13.44,0c-2.94,0-5.88-.22-8.81-.23-2.21,0-4.42.22-6.63.22-1.9,0-3.79-.26-5.69-.27-6.76,0-13.52,0-20.28,0-1.43,0-2.86-.09-4.29-.14-1.62-.06-2.15.46-2.17,2.06q-.15,9.78-.33,19.54c0,1.06.2,1.6,1.44,1.59,6.07-.05,12.14,0,18.21,0,2.68,0,5.37,0,8,.21a16.29,16.29,0,0,0,3.42,0c.81-.09,1.67.53,2.51.52,1.66,0,3.3.08,4.95.1,6.27.08,12.53.11,18.8.17.91,0,1.83.08,2.75.12-.05.87-.12,1.75-.13,2.62,0,4.36,0,8.71,0,13.21-.84,0-1.39.09-1.93.09-4.56,0-9.12,0-13.68,0-5,0-9.93-.1-14.9-.21-4.5-.1-9-.37-13.5-.43-5-.07-9.92,0-14.88,0-1.52,0-1.59,1-1.6,2.09,0,3.85,0,7.7-.09,11.54-.06,4.09-.2,8.17-.26,12.25,0,2.81,0,5.62,0,8.31Z" transform="translate(-2.57 -344.24)"/><path d="M115.62,519.94H90.42c.65-1.21,1.33-2.48,2-3.75,1.55-2.9,3.12-5.79,4.66-8.7,1-1.8,1.91-3.62,2.83-5.44,2.28-4.51,4.53-9,6.82-13.53.9-1.77,1.91-3.48,2.8-5.25,2.36-4.65,4.68-9.33,7-14q3.08-6.11,6.18-12.2c2.27-4.44,4.59-8.85,6.84-13.29s4.29-8.71,6.52-13a2.24,2.24,0,0,1,1.65-.69c3-.09,6-.13,9.06-.1,3.44,0,6.92.49,10.33.18s4.88,1,6,4c1.86,4.9,4.07,9.66,6.2,14.44,1.43,3.23,3,6.39,4.47,9.6q3.07,6.73,6.11,13.51c2.32,5.17,4.56,10.38,6.94,15.53,2.66,5.73,5.43,11.41,8.15,17.11q3.75,7.84,7.5,15.68a1.73,1.73,0,0,1,.14.55H180.73l-.15,0c-1.05,0-2.45.39-3.07-.13-.89-.74-1.26-2.14-1.76-3.3-1.59-3.7-3.12-7.42-4.7-11.13a2.06,2.06,0,0,0-2.22-1.23c-6.53,0-13.06,0-19.59-.09-7.61-.09-15.21-.27-22.81-.41-3.27-.06-3.48.21-4.92,3.49s-3.23,6.76-4.86,10.14C116.35,518.5,116,519.13,115.62,519.94Zm32.83-66.59-.49.07c-1.79,3.53-3.63,7-5.36,10.6-2,4.07-3.88,8.2-5.83,12.3-1.62,3.39-3.3,6.76-4.88,10.17a2.47,2.47,0,0,0,0,1.87c.13.28,1,.23,1.58.29a9.73,9.73,0,0,0,1.08,0c3.72.08,7.44.2,11.16.24,5.24.05,10.49,0,15.73.06,1.95,0,2.24-.33,1.51-2.1q-3.39-8.12-6.83-16.22-2.7-6.35-5.45-12.67C150,456.4,149.18,454.88,148.45,453.35Z" transform="translate(-2.57 -344.24)"/><path d="M304.6,405.41c4.73-1.09,9.35-2.15,14-3.24,1-.24,1.94-.58,2.89-.9.74-.25,1.19-.19,1.53.68,1.4,3.62,4.39,5.72,7.56,7.6a39.27,39.27,0,0,0,4.62,2.45,16.38,16.38,0,0,0,3.95,1.07,50.36,50.36,0,0,0,8.93,1,103.64,103.64,0,0,0,11.46-1.42,12.94,12.94,0,0,0,8-4.72,6.17,6.17,0,0,0-2.4-9.92c-2.38-.91-4.93-1.4-7.4-2.07a24.65,24.65,0,0,0-2.49-.65c-4.27-.73-8.55-1.32-12.79-2.15-4.51-.9-9-1.84-13.44-3.1a39,39,0,0,1-8.37-3.48A17.44,17.44,0,0,1,312,375.22c-2.08-8.54.46-16.65,7.37-21.85a34.43,34.43,0,0,1,6.28-4,37.55,37.55,0,0,1,15.43-3.8c4,0,8-.43,12-.21A54.29,54.29,0,0,1,363.59,347,70.9,70.9,0,0,1,374.85,351a25.89,25.89,0,0,1,5.93,4.36c2.74,2.39,5.32,5,8.23,7.69-1.89.65-3.31,1.13-4.73,1.64l-7.77,2.82c-.67.24-1.37.4-2,.65s-1.09.53-1.65.74-1.53,1-2.13-.06c-1.58-2.88-4.31-4.29-7.08-5.64C359,361,354.12,360.38,349.1,360a60.84,60.84,0,0,0-11.85.72,9.19,9.19,0,0,0-7.57,7.82c-.09,1.27,2.17,4.66,3.53,5.05,3.49,1,7,2,10.52,2.81,4.57,1,9.2,1.83,13.8,2.77,4,.81,8.06,1.53,12,2.57a41.62,41.62,0,0,1,6.49,2.71,28.15,28.15,0,0,1,4.09,2.19,15.54,15.54,0,0,1,3.56,3c2.3,2.83,4.1,6,4.26,9.77a38.45,38.45,0,0,1,0,6.7,20.53,20.53,0,0,1-5.25,11.21,26.9,26.9,0,0,1-11,7.36,66.76,66.76,0,0,1-10.21,2.62,71.32,71.32,0,0,1-18.39,1c-6.39-.45-12.76-1.36-18.71-3.82A38.82,38.82,0,0,1,314.15,418c-3.93-3.34-6.46-7.61-9.22-11.78A4.62,4.62,0,0,1,304.6,405.41Z" transform="translate(-2.57 -344.24)"/><path d="M195.55,345.82c-.93,1.89-1.67,3.34-2.37,4.83-2,4.31-4,8.65-6.07,12.94-1.91,4-4,7.88-5.91,11.84-4,8.17-7.91,16.37-11.91,24.53-1.6,3.28-3.4,6.45-5,9.75-2,4.21-3.84,8.48-5.71,12.75-.46,1.07-.93,1.7-2.32,1.66-5.46-.16-10.93-.15-16.4-.18-1.38,0-2.39-.17-2.68-2-.23-1.39-1.21-2.65-1.79-4-1.29-3.05-2.49-6.14-3.82-9.17-2.13-4.83-4.35-9.63-6.51-14.45-1.77-3.93-3.56-7.85-5.28-11.8-1.9-4.32-3.73-8.67-5.61-13-1.59-3.65-3.21-7.29-4.79-10.94-1.9-4.4-3.77-8.82-5.71-13.36H125.2q11.42,28.53,22.87,57.21l.4.09c.53-1.43,1-2.87,1.61-4.27,1.18-2.86,2.4-5.7,3.63-8.54,1.68-3.88,3.34-7.78,5.1-11.63,1.55-3.4,3.23-6.74,4.81-10.13,1-2.11,1.87-4.26,2.82-6.38,1.9-4.21,3.83-8.41,5.73-12.62.39-.88.64-1.82,1.07-2.67a1.35,1.35,0,0,1,1-.67c4,0,8.06.14,12.09.19C189.25,345.85,192.19,345.82,195.55,345.82Z" transform="translate(-2.57 -344.24)"/><path d="M218.63,346.62h5.8c1.63,0,3.26.09,4.88.11,2.09,0,4.18.07,6.27,0,1.2,0,4,0,4.82,0,2.56,6.55,5.42,13.74,8.08,20.25,2,4.9,4.12,9.76,6.11,14.67,1.59,3.92,3.06,7.9,4.58,11.85,1.21,3.16,2.41,6.32,3.63,9.48.12.32.31.62.73,1.43,7.42-19.78,17-38.12,25-57.36h21.87c-.58,1.1-1.1,2-1.54,2.94-3,6.34-5.9,12.71-8.93,19-3.81,7.92-7.73,15.79-11.55,23.7q-4.08,8.41-8,16.9c-2.25,4.85-4.36,9.76-6.61,14.61a2,2,0,0,1-1.4,1c-3,.17-6,.29-9,.27s-6-.25-9-.31c-1.47,0-1.31-1.33-1.67-2.08-1.5-3.14-2.84-6.37-4.25-9.56q-2.91-6.55-5.85-13.1c-2.34-5.18-4.74-10.33-7-15.53-1.87-4.26-3.56-8.59-5.44-12.84s-4-8.62-6-13C222.24,355.1,220.52,351,218.63,346.62Z" transform="translate(-2.57 -344.24)"/><path d="M231.58,394.61c-1,.07-8.24.63-10.9.74-.53,0-.46-.25-.65-.67a18.89,18.89,0,0,0-2.34-2.55,12.38,12.38,0,0,0-6.62-3.2c-1.12-.16-2.23-.2-3.31-.25a18.49,18.49,0,0,0-6.59,1c-6.93,2.38-9.88,8.24-9.19,15.32A13.24,13.24,0,0,0,198,415.13a18.75,18.75,0,0,0,11.34,2.48c2.89-.19,5.61-.76,7.76-2.67a37.7,37.7,0,0,0,3.58-4.49c.31-.37.79-.84,1.2-.84,3.19-.07,6.38,0,10,0a33.18,33.18,0,0,1-2.6,5.41,28.24,28.24,0,0,1-4.66,4.93,16.28,16.28,0,0,1-8.37,3.83,98.67,98.67,0,0,1-10.52,1.17c-2.08.06-4.18-.69-6.26-1.09-.8-.16-1.57-.4-2.37-.57a19.22,19.22,0,0,1-11.68-7.64,20.49,20.49,0,0,1-3.78-16.08c1.32-7.87,6-13.37,13.57-16.06a39.69,39.69,0,0,1,10.52-2.3,32.64,32.64,0,0,1,7.42.47,33.9,33.9,0,0,1,10.19,3.54,17.1,17.1,0,0,1,6.64,6.39A19.11,19.11,0,0,1,231.58,394.61Z" transform="translate(-2.57 -344.24)"/><path d="M218.4,372.69c-1.77,2.22-3.43,4.36-5.18,6.42-.24.29-1,.2-1.47.22-3.28.08-6.56.19-9.83.18a2.68,2.68,0,0,1-1.83-.77c-1.49-1.71-2.85-3.54-4.25-5.33-.08-.1,0-.3-.08-.63,1.93,0,3.84,0,5.73,0a1.45,1.45,0,0,1,.75.45,37.72,37.72,0,0,1,3.58,3.33c.83,1,1.35.72,2.06,0a20.88,20.88,0,0,0,2.26-2.25c1.16-1.6,2.71-1.81,4.48-1.67C215.79,372.76,217,372.69,218.4,372.69Z" transform="translate(-2.57 -344.24)"/></svg>