<svg id="Vrstva_1" data-name="Vrstva 1" xmlns="http://www.w3.org/2000/svg" viewBox="0 0 474.55 541.28"><defs><style>.cls-1{fill:#2b2a29;}.cls-2{fill:#e31e24;}.cls-3{fill:#fefefe;}.cls-4{fill:none;stroke:#2b2a29;stroke-miterlimit:22.93;stroke-width:2.83px;}</style></defs><path class="cls-1" d="M405.88,474.35q38.1-49.67,38.05-93.81,0-32.07-15.87-53.57c-10.57-14.26-23.33-21.39-38.16-21.39-14.26,0-26,5.41-35.07,16.21s-13.68,24.61-13.68,41.51q0,56.38,64.73,111.05M350.69,528.5q-35.87-39-49.32-70A164.43,164.43,0,0,1,288,393.07c0-34.37,9.31-63,27.82-86.11s43.11-34.49,73.58-34.49q44.31,0,72.88,31.39,28.46,31.22,28.52,71.74,0,56.56-65.88,118,69.72,56.74,82.37,125.78H434.89q-20.28-35.57-63.39-72.55-27,36.38-37.19,72.55h-51.5Q299.37,572.86,350.69,528.5Z" transform="translate(-58.78 -78.05)"/><path class="cls-2" d="M163.75,617.77,105.06,452.58q69.3-1.62,115-25.12l66.49,190.31ZM60.2,405V291.41H97.94c22.43,0,38.68-2,48.62-6.18,18.66-7.79,28.07-22.16,28.07-43.11,0-17.46-6.72-30.22-20.15-38.55-10.34-6.45-27.26-9.67-51-9.67H60.2V79.47H96.73q50.16,0,79.78,8.46a148,148,0,0,1,55.06,29.68,157.09,157.09,0,0,1,42.31,55.61,162.79,162.79,0,0,1-.81,139,164.43,164.43,0,0,1-43.91,57.08,145.57,145.57,0,0,1-52,27.67q-28,8.05-72.93,8.06Z" transform="translate(-58.78 -78.05)"/><rect class="cls-3" x="1.42" y="539.41" width="463.56" height="1.88"/><rect class="cls-4" x="1.42" y="1.42" width="471.71" height="537.99"/></svg>